<?xml version="1.0" standalone="no"?>
<!DOCTYPE svg PUBLIC "-//W3C//DTD SVG 20010904//EN"
 "http://www.w3.org/TR/2001/REC-SVG-20010904/DTD/svg10.dtd">
<svg version="1.0" xmlns="http://www.w3.org/2000/svg"
 width="1080.000000pt" height="1080.000000pt" viewBox="0 0 1080.000000 1080.000000"
 preserveAspectRatio="xMidYMid meet">
<metadata>
Created by potrace 1.14, written by Peter Selinger 2001-2017
</metadata>
<g transform="translate(0.000000,1080.000000) scale(0.100000,-0.100000)"
fill="#000000" stroke="none">
<path d="M0 10620 l0 -180 180 0 180 0 0 180 0 180 -180 0 -180 0 0 -180z"/>
<path d="M720 10620 l0 -180 1573 -1 c864 0 1579 -2 1587 -4 8 -1 42 -5 75 -8
362 -35 740 -253 970 -559 129 -171 242 -427 269 -608 15 -101 23 -168 25
-232 l1 -28 181 0 180 0 -6 93 c-3 50 -8 108 -11 127 -3 19 -7 46 -9 60 -36
267 -166 571 -346 808 -51 66 -170 194 -245 262 -38 35 -180 143 -219 167
-154 96 -393 200 -525 228 -105 22 -188 37 -250 44 -41 5 -789 10 -1662 10
l-1588 1 0 -180z"/>
<path d="M1080 9900 l0 -180 180 0 180 0 0 180 0 180 -180 0 -180 0 0 -180z"/>
<path d="M1800 9900 l0 -180 180 0 180 0 0 180 0 180 -180 0 -180 0 0 -180z"/>
<path d="M2520 9900 l0 -180 573 -1 c314 0 586 -3 602 -5 105 -17 262 -79 325
-130 191 -154 286 -333 299 -566 1 -16 17 -18 181 -18 l180 0 -5 80 c-16 245
-135 501 -320 685 -163 161 -306 236 -580 302 -16 4 -306 8 -642 10 l-613 4 0
-181z"/>
<path d="M95 8620 c-22 -11 -51 -36 -65 -57 l-25 -37 0 -2496 0 -2496 25 -37
c14 -21 43 -46 66 -57 39 -19 62 -20 607 -20 312 0 567 -3 567 -6 0 -3 -20
-38 -44 -78 -49 -80 -129 -244 -171 -351 -29 -73 -92 -279 -101 -330 -3 -16
-9 -48 -14 -70 -5 -22 -12 -62 -15 -90 -4 -27 -10 -77 -15 -110 -5 -33 -8
-271 -7 -530 2 -526 1 -515 74 -565 l37 -25 583 -3 c321 -1 583 -6 583 -10 0
-8 17 -107 24 -141 15 -67 54 -177 98 -271 124 -266 344 -507 593 -650 130
-74 296 -137 439 -166 91 -19 345 -25 447 -11 611 83 1122 572 1230 1180 l12
67 1367 0 1367 0 13 -72 c51 -290 192 -553 412 -770 93 -93 285 -238 313 -238
5 0 16 -6 24 -14 55 -46 339 -138 476 -153 89 -10 291 -10 374 0 342 41 678
228 908 504 161 194 286 466 317 694 7 46 7 47 52 52 52 5 104 38 131 82 17
28 18 68 19 720 2 712 -2 789 -42 994 -18 92 -59 255 -73 286 -5 11 -21 54
-36 95 -81 226 -249 508 -415 695 -44 50 -184 190 -230 230 -48 42 -183 142
-255 190 -228 151 -406 314 -531 485 -115 156 -168 248 -236 410 -87 205 -127
362 -154 614 -6 55 -5 58 10 43 22 -22 171 -127 221 -155 67 -38 198 -98 261
-120 54 -18 119 -36 119 -32 0 1 13 -4 29 -10 40 -15 125 -24 232 -25 80 0 95
3 127 25 21 14 46 43 57 65 20 39 20 59 17 995 -2 925 -3 956 -21 986 -11 17
-36 42 -55 55 -32 22 -44 24 -145 23 -117 -1 -180 -11 -311 -49 -328 -94 -629
-323 -776 -591 l-41 -74 -797 -2 -797 -3 -36 -25 c-75 -51 -73 -34 -73 -511
l0 -425 25 -36 c50 -74 39 -73 478 -76 l392 -3 0 -1889 0 -1890 -730 0 c-688
0 -730 1 -731 18 0 9 -2 26 -4 37 -2 11 -6 46 -9 78 -10 104 -57 304 -102 437
-58 168 -169 393 -265 537 -112 166 -280 357 -418 473 -29 25 -65 55 -80 68
-14 13 -67 51 -118 85 l-92 62 588 5 587 5 35 24 c20 13 44 38 55 55 19 30 19
73 21 2152 3 1767 1 2127 -11 2154 -19 47 -62 88 -104 100 -25 7 -1047 10
-3132 10 -3072 0 -3095 0 -3135 -20z m6025 -2230 l0 -1890 -2880 0 -2880 0 0
1890 0 1890 2880 0 2880 0 0 -1890z m3420 449 l0 -701 -32 8 c-168 36 -366
145 -486 266 -198 200 -250 420 -152 645 81 189 313 378 555 453 39 12 75 23
80 25 35 12 35 22 35 -696z m-1800 -179 l0 -180 -270 0 -270 0 0 180 0 180
270 0 270 0 0 -180z m721 -192 c1 -434 2 -440 24 -603 18 -130 77 -363 114
-450 5 -11 23 -56 41 -100 54 -136 141 -292 250 -450 127 -183 341 -396 542
-538 l87 -61 -83 -27 c-311 -102 -598 -332 -773 -619 -78 -129 -161 -344 -178
-465 -3 -16 -7 -41 -10 -55 -3 -14 -8 -69 -12 -122 l-6 -98 182 0 181 0 0 49
c0 128 55 327 128 461 142 262 408 469 687 536 60 14 133 25 195 29 l75 4 45
-55 c25 -30 51 -62 59 -70 28 -31 101 -135 101 -144 0 -6 5 -10 10 -10 6 0 10
-4 10 -9 0 -5 19 -40 42 -77 73 -121 134 -262 183 -424 26 -85 31 -102 40
-150 3 -14 7 -35 9 -47 3 -11 7 -43 11 -70 4 -26 9 -59 12 -73 4 -14 8 -292
10 -617 l5 -593 -1171 0 -1171 0 0 2610 0 2610 180 0 180 0 1 -372z m-6483
-2341 c-10 -7 -40 -28 -68 -47 -50 -34 -150 -109 -160 -120 -3 -3 -34 -30 -70
-60 -36 -30 -81 -69 -100 -87 l-34 -33 -593 0 -593 0 0 180 0 180 818 0 c645
-1 813 -3 800 -13z m2227 -1 c679 -95 1239 -495 1530 -1092 48 -99 128 -309
139 -368 3 -11 12 -55 21 -96 9 -41 18 -93 21 -115 3 -22 8 -58 11 -80 3 -22
7 -201 10 -397 l5 -358 -181 0 -181 0 -1 123 c0 67 -2 131 -4 142 -2 11 -6 58
-9 105 -7 107 -17 166 -50 305 -38 160 -121 358 -219 525 -307 520 -872 883
-1477 948 -86 9 -367 8 -455 -1 -38 -5 -103 -15 -145 -23 -41 -8 -86 -17 -100
-20 -72 -14 -303 -101 -407 -153 -209 -106 -355 -211 -518 -375 -202 -203
-348 -428 -450 -696 -55 -144 -99 -323 -111 -455 -3 -33 -8 -71 -9 -85 -2 -14
-4 -96 -4 -182 l-1 -158 -180 0 -180 0 1 353 c2 369 10 477 50 642 68 283 213
579 388 795 128 157 351 350 521 450 240 143 526 238 795 266 33 4 62 8 64 10
7 7 1075 -2 1126 -10z m-295 -735 c621 -128 1100 -578 1253 -1176 14 -55 29
-120 32 -145 4 -25 9 -54 12 -65 2 -11 7 -102 10 -202 l6 -183 -1623 0 -1622
0 5 193 c3 105 8 203 10 217 3 14 8 43 12 65 50 302 211 610 434 835 119 119
161 154 276 230 184 120 420 208 654 245 132 20 410 13 541 -14z m3830 -1591
l0 -180 -720 0 -720 0 0 180 0 180 720 0 720 0 0 -180z m-4815 -572 c17 -75
89 -201 158 -276 79 -84 169 -144 279 -186 87 -32 113 -37 238 -41 194 -6 341
47 497 183 84 72 182 224 217 335 5 15 23 17 195 17 l189 0 -9 -35 c-33 -117
-103 -265 -178 -375 -102 -149 -311 -324 -468 -394 -64 -27 -195 -70 -255 -81
-75 -14 -294 -14 -373 1 -342 63 -624 277 -779 591 -40 81 -74 178 -91 261
l-7 32 190 0 190 0 7 -32z m975 23 c0 -24 -85 -101 -146 -132 -62 -31 -76 -34
-154 -34 -76 0 -92 3 -152 33 -61 30 -148 109 -148 133 0 5 135 9 300 9 165 0
300 -4 300 -9z m4605 -22 c29 -131 155 -300 289 -387 134 -87 271 -124 438
-118 271 10 508 174 631 439 15 32 27 64 27 73 0 8 6 17 13 20 7 2 95 3 195 2
l182 -3 -34 -95 c-67 -192 -153 -329 -295 -470 -173 -172 -356 -270 -591 -314
-71 -14 -316 -15 -365 -3 -11 3 -40 10 -65 16 -119 28 -264 94 -370 169 -73
51 -208 184 -236 231 -10 17 -22 31 -26 31 -4 0 -8 5 -8 12 0 6 -6 19 -14 27
-42 47 -133 267 -152 366 l-6 35 190 0 190 0 7 -31z m975 22 c0 -24 -88 -104
-148 -133 -59 -29 -76 -33 -152 -33 -76 0 -93 3 -152 33 -61 30 -148 109 -148
133 0 5 135 9 300 9 171 0 300 -4 300 -9z"/>
<path d="M3060 7551 l0 -188 -62 -7 c-52 -6 -135 -21 -228 -41 -61 -14 -206
-62 -287 -95 -599 -249 -1036 -768 -1177 -1395 -36 -160 -43 -225 -45 -452
l-1 -153 -180 0 -180 0 0 -180 0 -180 2340 0 2340 0 0 180 0 180 -180 0 -180
0 -1 123 c-1 120 -2 137 -13 267 -5 55 -16 121 -40 237 -26 124 -97 318 -164
448 -53 104 -170 278 -252 375 -294 349 -708 587 -1165 669 -74 14 -113 19
-142 20 l-23 1 0 190 0 190 -180 0 -180 0 0 -189z m405 -544 c11 -2 40 -8 65
-13 25 -4 47 -8 50 -9 3 -1 23 -5 45 -10 121 -24 362 -128 493 -211 356 -228
617 -607 702 -1019 29 -138 30 -148 37 -342 l6 -183 -1622 0 -1622 0 2 168 c1
144 11 251 33 352 3 14 7 35 10 48 45 205 174 461 327 649 245 299 650 523
1029 568 30 4 56 8 58 10 5 5 364 -2 387 -8z"/>
<path d="M3127 6655 c-1 -2 -29 -5 -62 -9 -59 -6 -130 -22 -210 -47 -22 -7
-42 -13 -45 -14 -68 -20 -177 -76 -280 -143 -92 -61 -268 -229 -316 -302 -16
-25 -31 -47 -34 -50 -3 -3 -13 -17 -22 -32 l-17 -26 147 -88 c81 -48 150 -88
153 -90 3 -2 21 18 40 44 18 26 62 77 99 113 182 183 401 281 643 288 15 1 17
16 17 182 l0 180 -55 -2 c-30 -1 -56 -3 -58 -4z"/>
<path d="M8460 2340 l0 -180 180 0 180 0 0 180 0 180 -180 0 -180 0 0 -180z"/>
</g>
</svg>
